#!OML:ASF F:\VICON\USERDATA\INSTALL\rory3\rory3.ASF
:FULLY-SPECIFIED
:DEGREES
289
root -0.216938 17.2909 -16.4715 86.0883 -51.4032 -419.908
lowerback 10.0329 1.02176 -1.92379
upperback -2.08396 1.13315 0.227013
thorax -7.89034 0.647544 1.13467
lowerneck -20.5641 -5.15029 -7.42896
upperneck 13.7587 -9.18894 20.3236
head 9.17796 -2.90824 6.97401
rclavicle -2.22639e-014 6.36111e-015
rhumerus -22.7486 -2.58521 -59.2759
rradius 40.3322
rwrist 6.31423
rhand -28.6884 -59.1821
rfingers 7.12502
rthumb -2.05081 -89.152
lclavicle -2.22639e-014 6.36111e-015
lhumerus -14.7749 -2.34254 51.7809
lradius 56.6311
lwrist 15.314
lhand -41.3766 320.154
lfingers 7.12502
lthumb -14.2946 -10.3577
rfemur -48.3921 -3.46014 33.9541
rtibia 36.7476
rfoot 2.10849 -3.68668
rtoes -13.8295
lfemur -58.281 19.305 -0.788001
ltibia 50.707
lfoot -35.0201 38.1017
ltoes 18.3513
290
root -0.232937 17.3011 -16.5137 85.1894 -52.3038 -419.702
lowerback 10.6556 0.643804 -1.24885
upperback -2.01152 0.709238 0.252603
thorax -8.14623 0.41084 0.847725
lowerneck -20.7347 -5.27675 -8.2848
upperneck 14.5532 -9.41257 20.9824
head 9.60434 -2.96241 7.3761
rclavicle 2.70347e-014 -1.27222e-014
rhumerus -23.7085 -2.02752 -61.351
rradius 39.8782
rwrist 6.08156
rhand -28.998 -60.3657
rfingers 7.12502
rthumb -2.3498 90.3325
lclavicle 2.70347e-014 -1.27222e-014
lhumerus -14.1359 -2.19476 51.4781
lradius 55.9218
lwrist 14.9533
lhand -41.8318 319.986
lfingers 7.12502
lthumb -14.7332 -10.5575
rfemur -48.062 -2.59718 32.7917
rtibia 36.634
rfoot 0.167943 -5.88939
rtoes -3.99893
lfemur -57.271 18.5468 -1.08905
ltibia 50.74
lfoot -35.3976 38.2982
ltoes 18.2006
291
root -0.274502 17.2889 -16.619 87.9951 -53.5334 -422.404
lowerback 9.42328 0.868822 -1.8394
upperback -2.19971 0.95848 0.315131
thorax -7.65659 0.560478 1.21591
lowerneck -20.8049 -5.26246 -8.79203
upperneck 15.0628 -9.43135 21.3665
head 9.84848 -2.94538 7.63906
rclavicle -2.70347e-014 -1.17681e-013
rhumerus -24.4436 -2.86309 -63.065
rradius 38.392
rwrist 7.6794
rhand -29.8078 -60.6383
rfingers 7.12502
rthumb -3.13183 90.5951
lclavicle -2.70347e-014 -1.17681e-013
lhumerus -13.3701 -1.97772 50.7547
lradius 55.217
lwrist 15.0713
lhand -41.9125 319.67
lfingers 7.12502
lthumb -14.8109 -10.8796
rfemur -49.3828 -1.95994 33.4755
rtibia 36.5352
rfoot 0.957502 -5.58363
rtoes -16.487
lfemur -57.3306 21.0168 -2.09353
ltibia 50.938
lfoot -33.7904 38.7484
ltoes 16.7837
292
root -0.294684 17.2857 -16.6464 87.1475 -54.9103 -421.938
lowerback 9.66801 0.339805 -1.36073
upperback -2.15626 0.281779 -0.0152951
thorax -7.72019 0.199651 0.704837
lowerneck -20.2487 -4.97447 -8.65025
upperneck 14.7867 -9.05684 21.4098
head 9.57848 -2.80618 7.67503
rclavicle -2.22639e-014 -9.22361e-014
rhumerus -25.3906 -2.37754 -65.3764
rradius 37.9087
rwrist 6.86187
rhand -29.562 -59.4295
rfingers 7.12502
rthumb -2.89447 -89.3896
lclavicle -2.22639e-014 -9.22361e-014
lhumerus -12.6793 -1.65876 49.7794
lradius 54.654
lwrist 15.9039
lhand -40.6176 318.853
lfingers 7.12502
lthumb -13.5631 -11.6085
rfemur -49.7009 -2.6192 32.6763
rtibia 36.6231
rfoot -0.394503 -6.79991
rtoes -11.7427
lfemur -56.652 20.3255 -3.13205
ltibia 50.9351
lfoot -34.7178 38.1798
ltoes 17.9328
293
root -0.328016 17.2805 -16.7292 88.1763 -56.1358 -423.048
lowerback 9.21531 0.338629 -1.74923
upperback -2.30869 0.239998 -0.000687344
thorax -7.62414 0.197672 0.946744
lowerneck -19.4002 -4.89935 -8.80156
upperneck 14.2752 -8.85766 21.4589
head 9.21869 -2.78904 7.72493
rclavicle -4.45278e-014 -1.04958e-013
rhumerus -26.4894 -3.72782 -66.3048
rradius 36.5143
rwrist 9.51232
rhand -28.4582 -59.0392
rfingers 7.12502
rthumb -1.82847 -89.0111
lclavicle -4.45278e-014 -1.04958e-013
lhumerus -11.6708 -1.57381 49.1119
lradius 53.8856
lwrist 17.2573
lhand -37.6509 318.33
lfingers 7.12502
lthumb -10.7025 -11.963
rfemur -50.4811 -2.11279 32.3965
rtibia 36.6744
rfoot -0.983116 -8.35203
rtoes -12.5695
lfemur -56.4908 21.43 -4.2318
ltibia 51.0417
lfoot -33.9603 38.2045
ltoes 16.9582
294
root -0.32183 17.2428 -16.6945 83.4019 -57.1627 -418.978
lowerback 10.6658 -0.721832 0.214575
upperback -2.04272 -0.971326 -0.454054
thorax -8.17734 -0.494667 -0.431692
lowerneck -19.2537 -5.02312 -8.97
upperneck 14.3175 -8.98585 21.3957
head 9.23008 -2.8704 7.71298
rclavicle 2.22639e-014 -7.63333e-014
rhumerus -27.6106 -4.04824 -67.6745
rradius 35.6661
rwrist 10.2353
rhand -28.2102 -59.6562
rfingers 7.12502
rthumb -1.58891 -89.63
lclavicle 2.22639e-014 -7.63333e-014
lhumerus -10.4549 -2.62124 48.7361
lradius 52.573
lwrist 15.6492
lhand -41.0682 318.304
lfingers 7.12502
lthumb -13.9974 -12.1874
rfemur -50.2375 -5.08021 31.664
rtibia 36.7809
rfoot -1.38212 -9.70479
rtoes -14.7974
lfemur -55.7822 18.9212 -5.62792
ltibia 51.017
lfoot -33.7789 38.4091
ltoes 16.5358
295
root -0.376873 17.2639 -16.7804 84.6471 -58.4325 -421.111
lowerback 10.5945 -0.742281 0.713603
upperback -1.86183 -0.996649 -1.2611
thorax -7.96724 -0.552208 -1.56537
lowerneck -19.5984 -4.93564 -8.26076
upperneck 14.8106 -9.23785 21.6127
head 9.49432 -2.90207 7.64887
rclavicle -9.54166e-015 5.08889e-014
rhumerus -28.6964 -4.97495 -70.3404
rradius 34.6446
rwrist 10.7656
rhand -28.6429 -59.4788
rfingers 7.12502
rthumb -2.00682 -89.4491
lclavicle -9.54166e-015 5.08889e-014
lhumerus -9.05022 -2.62365 47.0019
lradius 51.558
lwrist 14.4254
lhand -41.6758 318.6
lfingers 7.12502
lthumb -14.5828 -11.9331
rfemur -50.19 -4.14394 31.3918
rtibia 36.8956
rfoot -1.28941 -11.2015
rtoes -17.5427
lfemur -54.1606 18.9706 -5.5302
ltibia 51.0695
lfoot -35.8071 38.4374
ltoes 18.007
296
root -0.437871 17.2755 -16.9197 88.8253 -60.0596 -424.857
lowerback 8.81626 0.175626 -3.03201
upperback -2.07643 -0.1029 0.176537
thorax -7.13764 0.0835189 1.90817
lowerneck -19.9572 -5.27291 -8.99045
upperneck 15.3731 -9.23478 20.3434
head 9.68817 -2.98644 7.32621
rclavicle 0 0
rhumerus -29.496 -4.69192 -69.449
rradius 33.7794
rwrist 10.7542
rhand -28.6918 -58.2596
rfingers 7.12502
rthumb -2.05402 -88.2295
lclavicle 0 0
lhumerus -8.26811 -1.8835 48.8227
lradius 50.4228
lwrist 12.6258
lhand -42.1075 318.952
lfingers 7.12502
lthumb -14.9987 -11.6113
rfemur -51.7728 -2.17572 31.132
rtibia 37.1035
rfoot -1.01598 -12.8406
rtoes -17.8296
lfemur -54.2947 21.4035 -6.70266
ltibia 51.1247
lfoot -36.1605 38.0987
ltoes 18.4858
297
root -0.477491 17.2589 -17.0022 89.3163 -61.7244 -425.696
lowerback 8.70703 0.0220608 -4.19247
upperback -2.07681 -0.431453 0.258779
thorax -7.0535 -0.0277632 2.69658
lowerneck -20.2756 -5.17527 -9.01513
upperneck 15.9846 -9.07462 19.9153
head 9.90101 -2.90841 7.22286
rclavicle 2.70347e-014 6.36111e-014
rhumerus -30.3358 -4.92785 -70.3801
rradius 32.8679
rwrist 11.6791
rhand -28.2978 -57.752
rfingers 7.12502
rthumb -1.67348 -87.7251
lclavicle 2.70347e-014 6.36111e-014
lhumerus -7.66939 -2.29441 48.4081
lradius 49.7019
lwrist 12.6039
lhand -43.5671 319.327
lfingers 7.12502
lthumb -16.4045 -11.3466
rfemur -52.3061 -1.48522 29.9724
rtibia 37.3098
rfoot -1.1601 -15.1019
rtoes -15.1197
lfemur -54.1214 23.2191 -8.83188
ltibia 51.1336
lfoot -34.7262 37.5553
ltoes 17.1666
298
root -0.510585 17.2598 -17.1116 90.62 -62.9246 -427.049
lowerback 8.17266 -0.0867941 -5.15449
upperback -2.21169 -0.647342 0.445522
thorax -6.86727 -0.0913592 3.46185
lowerneck -20.2449 -5.0607 -9.08062
upperneck 16.4006 -8.89646 19.6322
head 9.99102 -2.84148 7.17544
rclavicle -1.27222e-014 -5.40694e-014
rhumerus -31.3184 -5.45695 -71.1956
rradius 31.9204
rwrist 12.8241
rhand -28.2232 -57.5096
rfingers 7.12502
rthumb -1.60145 -87.4833
lclavicle -1.27222e-014 -5.40694e-014
lhumerus -7.06013 -2.38625 47.9509
lradius 48.9498
lwrist 12.2685
lhand -44.0701 318.053
lfingers 7.12502
lthumb -16.8886 -12.661
rfemur -53.3345 -2.59593 30.766
rtibia 37.5281
rfoot -0.52462 -14.6777
rtoes -13.9564
lfemur -53.8774 23.9094 -9.60294
ltibia 51.1402
lfoot -34.4057 37.8432
ltoes 16.3168
299
root -0.55164 17.2726 -17.1738 90.9017 -64.6151 -428.008
lowerback 8.38236 -0.259618 -5.66172
upperback -2.18275 -0.972348 0.0853066
thorax -6.9259 -0.237554 3.41508
lowerneck -19.5564 -4.8779 -8.638
upperneck 16.2576 -8.66937 19.1626
head 9.72129 -2.79248 6.94389
rclavicle 1.11319e-014 -1.27222e-014
rhumerus -32.3971 -6.58096 -72.1576
rradius 30.9087
rwrist 13.6472
rhand -29.0789 -56.9314
rfingers 7.12502
rthumb -2.42788 -86.8973
lclavicle 1.11319e-014 -1.27222e-014
lhumerus -6.32761 -2.82263 47.1921
lradius 48.1735
lwrist 11.5571
lhand -42.332 316.218
lfingers 7.12502
lthumb -15.215 -14.3616
rfemur -53.2385 -0.920798 28.7103
rtibia 37.6442
rfoot -1.25635 -17.8215
rtoes -10.245
lfemur -52.7001 23.8214 -10.7142
ltibia 51.0843
lfoot -34.8974 38.2908
ltoes 16.4516
300
root -0.59355 17.263 -17.2637 92.2754 -65.1109 -429.376
lowerback 7.82444 -0.458906 -5.46482
upperback -2.35375 -1.17629 0.253914
thorax -6.76619 -0.343856 3.50097
lowerneck -19.969 -5.07514 -7.78672
upperneck 17.6233 -9.141 17.9951
head 10.236 -2.99648 6.33078
rclavicle 1.11319e-014 -5.40694e-014
rhumerus -33.4645 -7.9099 -72.826
rradius 29.9379
rwrist 15.1088
rhand -29.93 -56.5944
rfingers 7.12502
rthumb -3.24984 -86.5494
lclavicle 1.11319e-014 -5.40694e-014
lhumerus -5.74676 -3.30409 46.6812
lradius 47.4599
lwrist 11.0407
lhand -41.7459 315.898
lfingers 7.12502
lthumb -14.6503 -14.6393
rfemur -53.935 -1.50569 29.84
rtibia 37.5582
rfoot -0.486845 -17.9341
rtoes -11.1599
lfemur -52.7022 24.7603 -10.9573
ltibia 51.2059
lfoot -34.3479 38.531
ltoes 16.2076
301
root -0.64018 17.2507 -17.3185 91.5854 -65.351 -428.925
lowerback 7.86132 -0.760587 -5.20513
upperback -2.47591 -1.51094 0.950061
thorax -6.87118 -0.496646 4.13757
lowerneck -19.6569 -5.1872 -8.14746
upperneck 18.0122 -9.08654 17.3494
head 10.2751 -3.05468 6.17716
rclavicle -4.29375e-014 -1.59028e-014
rhumerus -34.5064 -7.54679 -72.6267
rradius 29.292
rwrist 14.6638
rhand -29.5529 -57.7891
rfingers 7.12502
rthumb -2.88568 -87.7494
lclavicle -4.29375e-014 -1.59028e-014
lhumerus -5.33845 -3.59792 47.0854
lradius 46.9307
lwrist 10.912
lhand -43.2958 316.757
lfingers 7.12502
lthumb -16.1432 -13.895
rfemur -54.1022 -2.50124 30.7995
rtibia 37.3445
rfoot 0.436695 -18.2457
rtoes -14.4746
lfemur -52.2071 24.0112 -10.5875
ltibia 51.2946
lfoot -35.0082 38.8488
ltoes 16.6864
302
root -0.693064 17.2369 -17.3846 92.8681 -65.6133 -430.047
lowerback 7.04927 -1.08107 -4.09132
upperback -2.64609 -1.79707 0.88804
thorax -6.58235 -0.693987 3.45784
lowerneck -19.4017 -5.18783 -8.60906
upperneck 18.2974 -9.13539 17.7786
head 10.3841 -3.07855 6.42675
rclavicle 4.77083e-015 -5.40694e-014
rhumerus -35.4686 -8.69706 -73.2431
rradius 28.2415
rwrist 15.9721
rhand -28.99 -58.1406
rfingers 7.12502
rthumb -2.34203 -88.1075
lclavicle 4.77083e-015 -5.40694e-014
lhumerus -4.48758 -5.93729 45.5528
lradius 46.3617
lwrist 12.4065
lhand -44.1756 317.314
lfingers 7.12502
lthumb -16.9902 -13.4093
rfemur -54.7233 -2.75158 31.8099
rtibia 37.1554
rfoot 0.830443 -18.4494
rtoes -15.9681
lfemur -52.2784 24.6174 -10.6546
ltibia 51.4645
lfoot -34.9467 38.9955
ltoes 16.1937
